<svg width="128" height="128" viewBox="0 0 128 128" fill="none" xmlns="http://www.w3.org/2000/svg">
<rect width="128" height="128" fill="#D9D9D9"/>
<path d="M30.9205 87.4091C29.6591 87.4091 28.5767 86.9574 27.6733 86.054C26.7699 85.1506 26.3182 84.0682 26.3182 82.8068C26.3182 81.5455 26.7699 80.4631 27.6733 79.5597C28.5767 78.6562 29.6591 78.2045 30.9205 78.2045C32.1818 78.2045 33.2642 78.6562 34.1676 79.5597C35.071 80.4631 35.5227 81.5455 35.5227 82.8068C35.5227 83.642 35.3097 84.4091 34.8835 85.108C34.4744 85.8068 33.9205 86.3693 33.2216 86.7955C32.5398 87.2045 31.7727 87.4091 30.9205 87.4091ZM50.7486 87.4091C49.4872 87.4091 48.4048 86.9574 47.5014 86.054C46.598 85.1506 46.1463 84.0682 46.1463 82.8068C46.1463 81.5455 46.598 80.4631 47.5014 79.5597C48.4048 78.6562 49.4872 78.2045 50.7486 78.2045C52.0099 78.2045 53.0923 78.6562 53.9957 79.5597C54.8991 80.4631 55.3509 81.5455 55.3509 82.8068C55.3509 83.642 55.1378 84.4091 54.7116 85.108C54.3026 85.8068 53.7486 86.3693 53.0497 86.7955C52.3679 87.2045 51.6009 87.4091 50.7486 87.4091ZM70.5767 87.4091C69.3153 87.4091 68.233 86.9574 67.3295 86.054C66.4261 85.1506 65.9744 84.0682 65.9744 82.8068C65.9744 81.5455 66.4261 80.4631 67.3295 79.5597C68.233 78.6562 69.3153 78.2045 70.5767 78.2045C71.8381 78.2045 72.9205 78.6562 73.8239 79.5597C74.7273 80.4631 75.179 81.5455 75.179 82.8068C75.179 83.642 74.9659 84.4091 74.5398 85.108C74.1307 85.8068 73.5767 86.3693 72.8778 86.7955C72.196 87.2045 71.429 87.4091 70.5767 87.4091ZM87.4134 72.2727V71.9659C87.4474 68.7102 87.7884 66.1193 88.4361 64.1932C89.0838 62.267 90.0043 60.7074 91.1974 59.5142C92.3906 58.321 93.8224 57.2216 95.4929 56.2159C96.4986 55.6023 97.402 54.8778 98.2031 54.0426C99.0043 53.1903 99.6349 52.2102 100.095 51.1023C100.572 49.9943 100.811 48.767 100.811 47.4205C100.811 45.75 100.419 44.3011 99.6349 43.0739C98.8509 41.8466 97.8026 40.9006 96.4901 40.2358C95.1776 39.571 93.7202 39.2386 92.1179 39.2386C90.7202 39.2386 89.3736 39.5284 88.0781 40.108C86.7827 40.6875 85.7003 41.5994 84.831 42.8438C83.9616 44.0881 83.4588 45.7159 83.3224 47.7273H76.8793C77.0156 44.8295 77.7656 42.3494 79.1293 40.2869C80.5099 38.2244 82.3253 36.6477 84.5753 35.5568C86.8423 34.4659 89.3565 33.9205 92.1179 33.9205C95.1179 33.9205 97.7259 34.517 99.9418 35.7102C102.175 36.9034 103.896 38.5398 105.107 40.6193C106.334 42.6989 106.947 45.0682 106.947 47.7273C106.947 49.6023 106.658 51.2983 106.078 52.8153C105.516 54.3324 104.697 55.6875 103.624 56.8807C102.567 58.0739 101.288 59.1307 99.7884 60.0511C98.2884 60.9886 97.0866 61.9773 96.1832 63.017C95.2798 64.0398 94.6236 65.2585 94.2145 66.6733C93.8054 68.0881 93.5838 69.8523 93.5497 71.9659V72.2727H87.4134ZM90.6861 87.4091C89.4247 87.4091 88.3423 86.9574 87.4389 86.054C86.5355 85.1506 86.0838 84.0682 86.0838 82.8068C86.0838 81.5455 86.5355 80.4631 87.4389 79.5597C88.3423 78.6562 89.4247 78.2045 90.6861 78.2045C91.9474 78.2045 93.0298 78.6562 93.9332 79.5597C94.8366 80.4631 95.2884 81.5455 95.2884 82.8068C95.2884 83.642 95.0753 84.4091 94.6491 85.108C94.2401 85.8068 93.6861 86.3693 92.9872 86.7955C92.3054 87.2045 91.5384 87.4091 90.6861 87.4091Z" fill="black"/>
</svg>
